<svg xmlns="http://www.w3.org/2000/svg" version="1.1" xmlns:xlink="http://www.w3.org/1999/xlink" xmlns:svgjs="http://svgjs.dev/svgjs" width="1000" height="1000" viewBox="0 0 1000 1000"><rect width="1000" height="1000" fill="#ffffff"></rect><g transform="matrix(0.7,0,0,0.7,149.57575757575756,282.1265587044535)"><svg viewBox="0 0 396 247" data-background-color="#61777f" preserveAspectRatio="xMidYMid meet" height="623" width="1000" xmlns="http://www.w3.org/2000/svg" xmlns:xlink="http://www.w3.org/1999/xlink"><g id="tight-bounds" transform="matrix(1,0,0,1,0.2400000000000091,-0.09999999999999432)"><svg viewBox="0 0 395.52 247.2" height="247.2" width="395.52"><g><svg></svg></g><g><svg viewBox="0 0 395.52 247.2" height="247.2" width="395.52"><g transform="matrix(1,0,0,1,39.55199999999999,87.35146124291887)"><svg viewBox="0 0 316.416 72.49707751416226" height="72.49707751416226" width="316.416"><g><svg viewBox="0 0 316.416 72.49707751416226" height="72.49707751416226" width="316.416"><g><svg viewBox="0 0 316.416 72.49707751416226" height="72.49707751416226" width="316.416"><g><svg viewBox="0 0 316.416 72.49707751416226" height="72.49707751416226" width="316.416"><g id="textblocktransform"><svg viewBox="0 0 316.416 72.49707751416226" height="72.49707751416226" width="316.416" id="textblock"><g><svg viewBox="0 0 316.416 39.10145944080084" height="39.10145944080084" width="316.416"><g transform="matrix(1,0,0,1,0,0)"><svg width="316.416" viewBox="1.100000023841858 -35.04999923706055 289.67999267578125 35.79999923706055" height="39.10145944080084" data-palette-color="#ffffff"><path d="M13.8 0L1.1 0 1.1-0.5 2.1-0.9Q3.1-1.25 3.43-1.85 3.75-2.45 3.75-3.4L3.75-3.4 3.75-29.55Q3.75-30.55 3.43-31.15 3.1-31.75 2.1-32.1L2.1-32.1 1.1-32.5 1.1-33 13.8-33 13.8-32.5 12.95-32.15Q12-31.8 11.65-31.23 11.3-30.65 11.3-29.65L11.3-29.65 11.3-17.5 23.25-17.5 23.25-29.65Q23.25-30.65 22.93-31.23 22.6-31.8 21.6-32.15L21.6-32.15 20.7-32.5 20.7-33 33.45-33 33.45-32.5 32.45-32.1Q31.5-31.75 31.15-31.15 30.8-30.55 30.8-29.55L30.8-29.55 30.8-3.4Q30.8-2.45 31.15-1.85 31.5-1.25 32.45-0.9L32.45-0.9 33.45-0.5 33.45 0 20.7 0 20.7-0.5 21.6-0.8Q22.6-1.2 22.93-1.78 23.25-2.35 23.25-3.35L23.25-3.35 23.25-16.5 11.3-16.5 11.3-3.35Q11.3-1.5 12.95-0.8L12.95-0.8 13.8-0.5 13.8 0ZM42.85 0.75L42.85 0.75Q39.95 0.75 37.97-0.9 36-2.55 36-5.65L36-5.65Q36-8 38.4-9.98 40.8-11.95 45.95-12.95L45.95-12.95Q46.75-13.1 47.75-13.28 48.75-13.45 49.85-13.65L49.85-13.65 49.85-17.6Q49.85-21 49.02-22.38 48.2-23.75 46.45-23.75L46.45-23.75Q45.25-23.75 44.55-22.98 43.85-22.2 43.65-20.3L43.65-20.3 43.55-19.75Q43.45-17.6 42.5-16.6 41.55-15.6 40.15-15.6L40.15-15.6Q38.85-15.6 38-16.4 37.15-17.2 37.15-18.55L37.15-18.55Q37.15-20.6 38.57-22 40-23.4 42.35-24.1 44.7-24.8 47.45-24.8L47.45-24.8Q51.9-24.8 54.32-22.63 56.75-20.45 56.75-15.55L56.75-15.55 56.75-4.5Q56.75-2.25 58.85-2.25L58.85-2.25 59.95-2.25 60.4-1.85Q59.45-0.65 58.32 0 57.2 0.65 55.15 0.65L55.15 0.65Q52.95 0.65 51.67-0.38 50.4-1.4 50-3.1L50-3.1Q48.5-1.5 46.92-0.38 45.35 0.75 42.85 0.75ZM45.9-2.3L45.9-2.3Q46.9-2.3 47.77-2.78 48.65-3.25 49.85-4.25L49.85-4.25 49.85-12.65Q49.35-12.55 48.85-12.45 48.35-12.35 47.7-12.25L47.7-12.25Q45.4-11.65 44.02-10.23 42.65-8.8 42.65-6.4L42.65-6.4Q42.65-4.35 43.6-3.33 44.55-2.3 45.9-2.3ZM74.6 0.15L71.7 0.15 64-21Q63.45-22.6 61.8-23.25L61.8-23.25 60.95-23.55 60.95-24.05 73.2-24.05 73.2-23.55 72.45-23.35Q70.5-22.75 71.15-20.95L71.15-20.95 75.8-6.8 79.95-17.8 79-20.65Q78.65-21.75 78.27-22.33 77.9-22.9 77.3-23.15L77.3-23.15 76.45-23.55 76.45-24.05 86.8-24.05 86.8-23.55 86.1-23.25Q85.35-22.95 85.2-22.45 85.05-21.95 85.4-20.95L85.4-20.95 90-7.05 94.75-20.85Q95.45-22.75 94-23.25L94-23.25 92.9-23.55 92.9-24.05 98.9-24.05 98.9-23.55 97.7-23.2Q96.84-22.95 96.47-22.43 96.09-21.9 95.8-21L95.8-21 88.6 0.15 86.05 0.15 80.5-16.2 74.6 0.15ZM112.54 0L100.59 0 100.59-0.5 101.34-0.75Q103.04-1.3 103.04-3.2L103.04-3.2 103.04-29.95Q103.04-30.95 102.64-31.45 102.24-31.95 101.24-32.25L101.24-32.25 100.59-32.4 100.59-32.9 109.74-35.05 110.34-34.6 110.19-27.6 110.19-3.2Q110.19-1.2 111.84-0.7L111.84-0.7 112.54-0.5 112.54 0ZM127.94 0L119.14 0 110.24-12.5 119.49-21.05Q120.14-21.65 120.27-22.33 120.39-23 119.39-23.3L119.39-23.3 118.54-23.55 118.54-24.05 125.99-24.05 125.99-23.55 124.49-23.15Q123.39-22.8 122.72-22.33 122.04-21.85 121.09-21L121.09-21 115.49-15.75 124.44-3.3Q125.24-2.2 125.94-1.6 126.64-1 127.74-0.6L127.74-0.6 127.94-0.5 127.94 0ZM153.29 0L140.59 0 140.59-0.5 141.59-0.9Q142.59-1.25 142.91-1.85 143.24-2.45 143.24-3.4L143.24-3.4 143.24-29.55Q143.24-30.55 142.91-31.15 142.59-31.75 141.59-32.1L141.59-32.1 140.59-32.5 140.59-33 153.29-33 153.29-32.5 152.44-32.15Q151.49-31.8 151.14-31.23 150.79-30.65 150.79-29.65L150.79-29.65 150.79-17.5 162.74-17.5 162.74-29.65Q162.74-30.65 162.41-31.23 162.09-31.8 161.09-32.15L161.09-32.15 160.19-32.5 160.19-33 172.94-33 172.94-32.5 171.94-32.1Q170.99-31.75 170.64-31.15 170.29-30.55 170.29-29.55L170.29-29.55 170.29-3.4Q170.29-2.45 170.64-1.85 170.99-1.25 171.94-0.9L171.94-0.9 172.94-0.5 172.94 0 160.19 0 160.19-0.5 161.09-0.8Q162.09-1.2 162.41-1.78 162.74-2.35 162.74-3.35L162.74-3.35 162.74-16.5 150.79-16.5 150.79-3.35Q150.79-1.5 152.44-0.8L152.44-0.8 153.29-0.5 153.29 0ZM187.69 0.75L187.69 0.75Q183.89 0.75 181.09-0.83 178.29-2.4 176.76-5.3 175.24-8.2 175.24-12.1L175.24-12.1Q175.24-16 176.86-18.85 178.49-21.7 181.31-23.25 184.14-24.8 187.69-24.8L187.69-24.8Q191.24-24.8 194.04-23.28 196.84-21.75 198.46-18.9 200.09-16.05 200.09-12.1L200.09-12.1Q200.09-8.15 198.56-5.28 197.04-2.4 194.26-0.83 191.49 0.75 187.69 0.75ZM187.69-0.25L187.69-0.25Q189.44-0.25 190.49-1.25 191.54-2.25 192.01-4.8 192.49-7.35 192.49-12L192.49-12Q192.49-16.7 192.01-19.25 191.54-21.8 190.49-22.8 189.44-23.8 187.69-23.8L187.69-23.8Q185.94-23.8 184.86-22.8 183.79-21.8 183.31-19.25 182.84-16.7 182.84-12L182.84-12Q182.84-7.35 183.31-4.8 183.79-2.25 184.86-1.25 185.94-0.25 187.69-0.25ZM214.03 0L202.28 0 202.28-0.5 202.98-0.7Q203.93-0.95 204.31-1.55 204.68-2.15 204.73-3.15L204.73-3.15 204.73-18.8Q204.73-19.9 204.38-20.43 204.03-20.95 203.03-21.15L203.03-21.15 202.28-21.35 202.28-21.85 210.83-24.75 211.33-24.25 211.73-20.85Q213.38-22.5 215.51-23.65 217.63-24.8 219.93-24.8L219.93-24.8Q222.33-24.8 223.78-23.83 225.23-22.85 225.98-20.8L225.98-20.8Q227.93-22.65 230.21-23.73 232.48-24.8 234.63-24.8L234.63-24.8Q238.18-24.8 239.86-23.1 241.53-21.4 241.53-17.75L241.53-17.75 241.53-3.1Q241.53-1.15 243.33-0.65L243.33-0.65 243.88-0.5 243.88 0 232.33 0 232.33-0.5 232.83-0.65Q233.78-0.95 234.16-1.55 234.53-2.15 234.53-3.15L234.53-3.15 234.53-18.45Q234.53-20.55 233.78-21.33 233.03-22.1 231.38-22.1L231.38-22.1Q230.08-22.1 228.86-21.53 227.63-20.95 226.28-19.8L226.28-19.8Q226.53-19 226.61-18.05 226.68-17.1 226.68-16.05L226.68-16.05 226.68-3.1Q226.73-1.15 228.48-0.65L228.48-0.65 228.93-0.5 228.93 0 217.33 0 217.33-0.5 218.03-0.7Q218.98-1 219.36-1.58 219.73-2.15 219.73-3.15L219.73-3.15 219.73-18.4Q219.73-20.4 219.01-21.25 218.28-22.1 216.53-22.1L216.53-22.1Q215.38-22.1 214.23-21.53 213.08-20.95 211.83-19.85L211.83-19.85 211.83-3.1Q211.83-1.15 213.58-0.65L213.58-0.65 214.03-0.5 214.03 0ZM258.38-24.8L258.38-24.8Q261.63-24.8 263.93-23.48 266.23-22.15 267.46-19.88 268.68-17.6 268.68-14.7L268.68-14.7Q268.68-14.15 268.63-13.58 268.58-13 268.43-12.55L268.43-12.55 253.53-12.55Q253.58-7.15 255.46-4.78 257.33-2.4 261.03-2.4L261.03-2.4Q263.53-2.4 265.08-3.2 266.63-4 267.98-5.55L267.98-5.55 268.48-5.1Q266.93-2.35 264.36-0.8 261.78 0.75 258.18 0.75L258.18 0.75Q254.63 0.75 251.88-0.78 249.13-2.3 247.58-5.15 246.03-8 246.03-11.95L246.03-11.95Q246.03-16.05 247.83-18.93 249.63-21.8 252.46-23.3 255.28-24.8 258.38-24.8ZM258.23-23.8L258.23-23.8Q256.78-23.8 255.76-22.93 254.73-22.05 254.16-19.83 253.58-17.6 253.53-13.55L253.53-13.55 262.08-13.55Q262.58-19 261.68-21.4 260.78-23.8 258.23-23.8ZM279.83 0.75L279.83 0.75Q277.38 0.75 275.43 0.18 273.48-0.4 271.83-1.25L271.83-1.25 271.88-7.2 272.38-7.2 274.08-4.2Q275.18-2.2 276.5-1.23 277.83-0.25 279.88-0.25L279.88-0.25Q282.28-0.25 283.75-1.33 285.23-2.4 285.23-4.2L285.23-4.2Q285.23-5.85 284.18-6.9 283.13-7.95 280.28-8.8L280.28-8.8 278.18-9.45Q275.13-10.35 273.38-12.25 271.63-14.15 271.63-16.9L271.63-16.9Q271.63-20.2 274.23-22.5 276.83-24.8 281.68-24.8L281.68-24.8Q283.63-24.8 285.35-24.38 287.08-23.95 288.68-23.1L288.68-23.1 288.38-17.7 287.88-17.7 286.13-20.8Q285.18-22.45 284.25-23.13 283.33-23.8 281.48-23.8L281.48-23.8Q279.78-23.8 278.28-22.85 276.78-21.9 276.78-20.15L276.78-20.15Q276.78-18.45 278.05-17.45 279.33-16.45 281.83-15.6L281.83-15.6 284.08-14.95Q287.68-13.85 289.23-11.93 290.78-10 290.78-7.3L290.78-7.3Q290.78-3.65 287.9-1.45 285.03 0.75 279.83 0.75Z" opacity="1" transform="matrix(1,0,0,1,0,0)" fill="#000000" class="undefined-text-0" data-fill-palette-color="primary" id="text-0"></path></svg></g></svg></g><g transform="matrix(1,0,0,1,0,48.332375579747335)"><svg viewBox="0 0 316.416 24.164701934414918" height="24.164701934414918" width="316.416"><g transform="matrix(1,0,0,1,0,0)"><svg width="316.416" viewBox="3.799999952316284 -38.849998474121094 647.510009765625 49.44999694824219" height="24.164701934414918" data-palette-color="#ffffff"><path d="M8.35 0L3.8 0 3.8-34.45 19.25-34.45 18.75-30.8 8.35-30.8 8.35-18.85 17.35-18.85 17.35-15.25 8.35-15.25 8.35 0ZM33.63-26.35L38.03-26.35 38.03 0 33.63 0 33.63-26.35ZM35.78-38.85Q37.13-38.85 37.93-38 38.73-37.15 38.73-35.8L38.73-35.8Q38.73-34.55 37.9-33.7 37.08-32.85 35.78-32.85L35.78-32.85Q34.48-32.85 33.65-33.7 32.83-34.55 32.83-35.8L32.83-35.8Q32.83-37.1 33.65-37.98 34.48-38.85 35.78-38.85L35.78-38.85ZM65.96-26.9Q68.81-26.9 70.51-24.85 72.21-22.8 72.21-19.35L72.21-19.35 72.21 0 67.81 0 67.81-18.75Q67.81-21.3 67.08-22.38 66.36-23.45 64.91-23.45L64.91-23.45Q62.06-23.45 59.61-18.55L59.61-18.55 59.61 0 55.21 0 55.21-26.35 59.01-26.35 59.36-22.4Q60.66-24.6 62.21-25.75 63.76-26.9 65.96-26.9L65.96-26.9ZM102.04-37.45L106.44-36.95 106.44 0 102.54 0 102.24-3.35Q99.89 0.6 96.24 0.6L96.24 0.6Q92.14 0.6 89.96-3.03 87.79-6.65 87.79-13.05L87.79-13.05Q87.79-17.2 88.89-20.35 89.99-23.5 91.94-25.2 93.89-26.9 96.39-26.9L96.39-26.9Q99.84-26.9 102.04-23.85L102.04-23.85 102.04-37.45ZM97.09-2.9Q99.94-2.9 102.04-6.65L102.04-6.65 102.04-20Q99.99-23.4 97.29-23.4L97.29-23.4Q94.99-23.4 93.71-20.9 92.44-18.4 92.44-13.15L92.44-13.15Q92.44-2.9 97.09-2.9L97.09-2.9ZM123.62-26.35L128.02-26.35 128.02 0 123.62 0 123.62-26.35ZM125.77-38.85Q127.12-38.85 127.92-38 128.72-37.15 128.72-35.8L128.72-35.8Q128.72-34.55 127.89-33.7 127.07-32.85 125.77-32.85L125.77-32.85Q124.47-32.85 123.64-33.7 122.82-34.55 122.82-35.8L122.82-35.8Q122.82-37.1 123.64-37.98 124.47-38.85 125.77-38.85L125.77-38.85ZM155.94-26.9Q158.79-26.9 160.49-24.85 162.19-22.8 162.19-19.35L162.19-19.35 162.19 0 157.79 0 157.79-18.75Q157.79-21.3 157.07-22.38 156.34-23.45 154.89-23.45L154.89-23.45Q152.04-23.45 149.59-18.55L149.59-18.55 149.59 0 145.19 0 145.19-26.35 148.99-26.35 149.34-22.4Q150.64-24.6 152.19-25.75 153.74-26.9 155.94-26.9L155.94-26.9ZM195.82-29.15L197.12-25.2Q195.97-24.7 194.55-24.55 193.12-24.4 190.92-24.4L190.92-24.4Q194.77-22.3 194.77-17.7L194.77-17.7Q194.77-13.65 192.52-11.23 190.27-8.8 186.32-8.8L186.32-8.8Q184.87-8.8 183.67-9.3L183.67-9.3Q183.17-8.9 182.9-8.22 182.62-7.55 182.62-6.8L182.62-6.8Q182.62-5.7 183.22-5.08 183.82-4.45 185.37-4.45L185.37-4.45 188.27-4.45Q190.72-4.45 192.57-3.5 194.42-2.55 195.4-0.93 196.37 0.7 196.37 2.65L196.37 2.65Q196.37 6.25 193.7 8.43 191.02 10.6 185.97 10.6L185.97 10.6Q180.77 10.6 178.6 8.58 176.42 6.55 176.42 2.65L176.42 2.65 180.32 2.65Q180.32 5.1 181.52 6.13 182.72 7.15 186.02 7.15L186.02 7.15Q189.22 7.15 190.62 6.08 192.02 5 192.02 2.95L192.02 2.95Q192.02-0.95 187.42-0.95L187.42-0.95 185.57-0.95Q181.97-0.95 180.32-2.27 178.67-3.6 178.67-5.85L178.67-5.85Q178.67-8.25 181.27-10.35L181.27-10.35Q177.42-12.7 177.42-17.75L177.42-17.75Q177.42-21.9 179.87-24.4 182.32-26.9 186.22-26.9L186.22-26.9Q189.72-26.9 191.72-27.45 193.72-28 195.82-29.15L195.82-29.15ZM186.17-23.75Q183.97-23.75 182.87-22.3 181.77-20.85 181.77-17.75L181.77-17.75Q181.77-15.05 182.92-13.4 184.07-11.75 186.12-11.75L186.12-11.75Q188.32-11.75 189.37-13.15 190.42-14.55 190.42-17.8L190.42-17.8Q190.42-23.75 186.17-23.75L186.17-23.75ZM245.78-34.45L250.43-34.45 241.33-13.25 241.33 0 236.78 0 236.78-13.2 227.68-34.45 232.53-34.45 239.18-17.25 245.78-34.45ZM272.56-26.9Q277.26-26.9 279.83-23.43 282.41-19.95 282.41-13.2L282.41-13.2Q282.41-6.85 279.78-3.13 277.16 0.6 272.51 0.6L272.51 0.6Q267.86 0.6 265.26-3.05 262.66-6.7 262.66-13.15L262.66-13.15Q262.66-19.8 265.26-23.35 267.86-26.9 272.56-26.9L272.56-26.9ZM272.56-23.35Q269.91-23.35 268.61-20.98 267.31-18.6 267.31-13.15L267.31-13.15Q267.31-7.75 268.61-5.35 269.91-2.95 272.51-2.95L272.51-2.95Q275.16-2.95 276.46-5.35 277.76-7.75 277.76-13.2L277.76-13.2Q277.76-18.6 276.46-20.98 275.16-23.35 272.56-23.35L272.56-23.35ZM314.84-26.35L314.84 0 311.04 0 310.74-3.7Q309.49-1.55 307.91-0.48 306.34 0.6 304.24 0.6L304.24 0.6Q301.39 0.6 299.69-1.35 297.99-3.3 297.99-6.45L297.99-6.45 297.99-26.35 302.39-26.35 302.39-6.9Q302.39-2.85 305.24-2.85L305.24-2.85Q306.89-2.85 308.14-4.03 309.39-5.2 310.44-7.3L310.44-7.3 310.44-26.35 314.84-26.35ZM342.12-26.9Q343.22-26.9 344.12-26.6L344.12-26.6 343.37-22.35Q342.37-22.6 341.57-22.6L341.57-22.6Q339.62-22.6 338.37-20.85 337.12-19.1 336.42-15.5L336.42-15.5 336.42 0 332.02 0 332.02-26.35 335.82-26.35 336.17-21.45Q338.02-26.9 342.12-26.9L342.12-26.9ZM389.27-26.9Q392.12-26.9 393.82-24.85 395.52-22.8 395.52-19.35L395.52-19.35 395.52 0 391.12 0 391.12-18.75Q391.12-21.3 390.4-22.38 389.67-23.45 388.22-23.45L388.22-23.45Q385.37-23.45 382.92-18.55L382.92-18.55 382.92 0 378.52 0 378.52-26.35 382.32-26.35 382.67-22.4Q383.97-24.6 385.52-25.75 387.07-26.9 389.27-26.9L389.27-26.9ZM429.55-13.95Q429.55-12.85 429.45-11.65L429.45-11.65 415.65-11.65Q415.85-6.9 417.23-4.95 418.6-3 421.15-3L421.15-3Q422.8-3 424.1-3.53 425.4-4.05 426.8-5.2L426.8-5.2 428.75-2.55Q425.45 0.6 421 0.6L421 0.6Q416.3 0.6 413.7-2.88 411.1-6.35 411.1-12.9L411.1-12.9Q411.1-19.45 413.58-23.18 416.05-26.9 420.55-26.9L420.55-26.9Q424.9-26.9 427.23-23.63 429.55-20.35 429.55-13.95L429.55-13.95ZM425.3-14.9L425.3-15.25Q425.3-19.55 424.15-21.5 423-23.45 420.55-23.45L420.55-23.45Q418.35-23.45 417.1-21.48 415.85-19.5 415.65-14.9L415.65-14.9 425.3-14.9ZM460.73-26.35L454.23-14.1 461.68 0 456.93 0 451.58-11.35 446.23 0 441.68 0 449.13-13.9 442.48-26.35 447.13-26.35 451.68-16.5 456.23-26.35 460.73-26.35ZM485.41-3.95L487.11-1.2Q484.86 0.6 482.06 0.6L482.06 0.6Q479.11 0.6 477.49-1.15 475.86-2.9 475.86-5.85L475.86-5.85 475.86-22.9 472.31-22.9 472.31-26.35 475.86-26.35 475.86-32.3 480.26-32.85 480.26-26.35 485.36-26.35 484.91-22.9 480.26-22.9 480.26-5.8Q480.26-3.05 482.61-3.05L482.61-3.05Q483.41-3.05 484.01-3.25 484.61-3.45 485.41-3.95L485.41-3.95ZM531.87-26.9Q534.72-26.9 536.42-24.85 538.12-22.8 538.12-19.35L538.12-19.35 538.12 0 533.72 0 533.72-18.75Q533.72-21.3 532.99-22.38 532.27-23.45 530.82-23.45L530.82-23.45Q527.97-23.45 525.52-18.55L525.52-18.55 525.52 0 521.12 0 521.12-36.9 525.52-37.35 525.52-22.65Q526.77-24.75 528.24-25.83 529.72-26.9 531.87-26.9L531.87-26.9ZM563.6-26.9Q568.3-26.9 570.87-23.43 573.45-19.95 573.45-13.2L573.45-13.2Q573.45-6.85 570.82-3.13 568.2 0.6 563.55 0.6L563.55 0.6Q558.9 0.6 556.3-3.05 553.7-6.7 553.7-13.15L553.7-13.15Q553.7-19.8 556.3-23.35 558.9-26.9 563.6-26.9L563.6-26.9ZM563.6-23.35Q560.95-23.35 559.65-20.98 558.35-18.6 558.35-13.15L558.35-13.15Q558.35-7.75 559.65-5.35 560.95-2.95 563.55-2.95L563.55-2.95Q566.2-2.95 567.5-5.35 568.8-7.75 568.8-13.2L568.8-13.2Q568.8-18.6 567.5-20.98 566.2-23.35 563.6-23.35L563.6-23.35ZM611.43-26.9Q614.08-26.9 615.68-24.83 617.28-22.75 617.28-19.35L617.28-19.35 617.28 0 612.98 0 612.98-18.8Q612.98-21.3 612.3-22.4 611.63-23.5 610.33-23.5L610.33-23.5Q607.68-23.5 605.43-18.8L605.43-18.8 605.43 0 601.13 0 601.13-18.8Q601.13-23.5 598.48-23.5L598.48-23.5Q597.08-23.5 595.8-22.25 594.53-21 593.53-18.8L593.53-18.8 593.53 0 589.23 0 589.23-26.35 593.03-26.35 593.33-22.55Q595.83-26.9 599.58-26.9L599.58-26.9Q601.58-26.9 602.95-25.68 604.33-24.45 604.93-22.2L604.93-22.2Q607.63-26.9 611.43-26.9L611.43-26.9ZM651.31-13.95Q651.31-12.85 651.21-11.65L651.21-11.65 637.41-11.65Q637.61-6.9 638.98-4.95 640.36-3 642.91-3L642.91-3Q644.56-3 645.86-3.53 647.16-4.05 648.56-5.2L648.56-5.2 650.51-2.55Q647.21 0.6 642.76 0.6L642.76 0.6Q638.06 0.6 635.46-2.88 632.86-6.35 632.86-12.9L632.86-12.9Q632.86-19.45 635.33-23.18 637.81-26.9 642.31-26.9L642.31-26.9Q646.66-26.9 648.98-23.63 651.31-20.35 651.31-13.95L651.31-13.95ZM647.06-14.9L647.06-15.25Q647.06-19.55 645.91-21.5 644.76-23.45 642.31-23.45L642.31-23.45Q640.11-23.45 638.86-21.48 637.61-19.5 637.41-14.9L637.41-14.9 647.06-14.9Z" opacity="1" transform="matrix(1,0,0,1,0,0)" fill="#000000" class="undefined-text-1" data-fill-palette-color="secondary" id="text-1"></path></svg></g></svg></g></svg></g></svg></g><g></g></svg></g></svg></g></svg></g><g mask="url(#3dfa76d3-678c-4f2d-96b3-05177726f412)"><g transform="matrix(2.5068241555390856, 0, 0, 2.5068241555390856, 102.89425723054228, 0.9999999999999858)"><svg xmlns="http://www.w3.org/2000/svg" xmlns:xlink="http://www.w3.org/1999/xlink" version="1.1" x="0" y="0" viewBox="12.982999801635742 1 75.68599700927734 97.81300354003906" enable-background="new 0 0 100 100" xml:space="preserve" height="97.81300354003906" width="75.68599700927734" class="icon-none" data-fill-palette-color="accent" id="none"><g fill="#ffffff" data-fill-palette-color="accent"><polygon fill-rule="evenodd" clip-rule="evenodd" points="12.983,10.59 30.001,98.813 24.129,39.764 53.15,37.872 53.096,27.989    64.549,1 53.622,18.977  " fill="#000000" data-fill-palette-color="accent"></polygon><polygon fill-rule="evenodd" clip-rule="evenodd" points="59.389,54.548 64.549,1.007 55.809,40.723 36.197,41.768 37.767,62.23    30.001,98.813 42.058,58.914  " fill="#000000" data-fill-palette-color="accent"></polygon><polygon fill-rule="evenodd" clip-rule="evenodd" points="62.8,67.182 63.349,56.729 47.37,60.484 47.338,72.281 30.001,98.813    51.681,71.197  " fill="#000000" data-fill-palette-color="accent"></polygon><polygon fill-rule="evenodd" clip-rule="evenodd" points="65.711,62.394 80.552,57.663 82.061,45.131 66.162,47.226  " fill="#000000" data-fill-palette-color="accent"></polygon><polygon fill-rule="evenodd" clip-rule="evenodd" points="72.07,44.502 83.058,43.085 84.639,32.807 76.56,32.434 64.549,1    72.979,31.967  " fill="#000000" data-fill-palette-color="accent"></polygon><polygon fill-rule="evenodd" clip-rule="evenodd" points="87.413,31.294 88.669,21.788 79.125,19.094 64.549,1 79.032,23.437    78.61,30.437  " fill="#000000" data-fill-palette-color="accent"></polygon></g></svg></g></g></svg></g><defs><mask id="3dfa76d3-678c-4f2d-96b3-05177726f412"><rect width="640" height="400" fill="white"></rect><rect width="348.05760000000004" height="90.95890979205525" fill="black" x="145.97119999999998" y="154.52054510397238" id="transform-me" transform="matrix(1,0,0,1,-122.24000000000001,-76.4)"></rect></mask></defs></svg><rect width="395.52" height="247.2" fill="none" stroke="none" visibility="hidden"></rect></g></svg></g></svg>